# xmcd
#
# Track frame offsets:
#	150
#	12788
#	25816
#	38191
#	50817
#	63519
#	76746
#	89926
#	102668
#	114528
#	127281
#	139875
#	152928
#	165475
#
# Disc length: 2367 seconds
#
# Revision: 0
# Processed by: cddbd v1.5.1PL2 Copyright (c) Steve Scherf et al.
# Submitted via: dBpowerAMP V4.0
#
DISCID=c7093d0e
DTITLE=Hank Williams - Wanted
DYEAR=1900
DGENRE=Country
TTITLE0=Move it on over
TTITLE1=I''m along gone daddy
TTITLE2=Never again (will i knock on your door)
TTITLE3=Honky tonkin' (1948)
TTITLE4=Rootie tootie
TTITLE5=Calling you
TTITLE6=On the banks of the old Pontchartrain
TTITLE7=wealth won't save your soul
TTITLE8=A mansion on the hill
TTITLE9=Six more miles (to the graveyard)
TTITLE10=I saw the light
TTITLE11=I can't get you off my mind
TTITLE12=Fly trouble
TTITLE13=(Last night I heard you crying in your sleep
EXTD=
EXTT0=
EXTT1=
EXTT2=
EXTT3=
EXTT4=
EXTT5=
EXTT6=
EXTT7=
EXTT8=
EXTT9=
EXTT10=
EXTT11=
EXTT12=
EXTT13=
PLAYORDER=
